<svg xmlns="http://www.w3.org/2000/svg" viewBox="0 0 2345.05 1145.54"><defs><style>.a{fill:#fff;stroke:#cecece;stroke-miterlimit:10;stroke-width:12px;}</style></defs><path class="a" d="M2050.93,873.27C1407.62,976,988.84,1366.11,788,2006.66l-450.62-16.08c132-251,308.25-463.87,524.7-643.5C1214.78,1054.37,1622.6,901.37,2050.93,873.27Z" transform="translate(-327.62 -867.28)"/><path class="a" d="M2347.56,1299.17,2183,1420.89c-41.49-23.76-79.86-49.63-121.35-68.72-107.8-49.58-222.68-60-339.63-53.09-137.91,8.18-270.75,39.82-399.67,88.81-.74.28,80.19-48.67,122.87-70.52,123.27-63.13,252.09-110.35,390.07-128.63,168.32-22.3,329.64-3.59,477.75,86.57C2324.67,1282.4,2335.51,1290.79,2347.56,1299.17Z" transform="translate(-327.62 -867.28)"/><path class="a" d="M2662.62,1064.63l-195.87,145.16c-71.27-40.21-146.1-71.24-225.18-91.69-189.81-49.07-377.41-35.63-563.25,20.91a1351.8,1351.8,0,0,0-326,148.27c-1.32.82-13.78,8.6-18.19,10.8l13.21-9.2c4.45-3.26,8.89-6.53,13.36-9.76,168-121,345.7-223.38,544.38-285.77,128.53-40.36,259.79-61.43,394.81-51.53C2425.71,951,2544.3,983.51,2650,1055.26,2654,1058,2657.81,1061,2662.62,1064.63Z" transform="translate(-327.62 -867.28)"/><path class="a" d="M1348.26,1290.6" transform="translate(-327.62 -867.28)"/></svg>